<svg xmlns="http://www.w3.org/2000/svg" viewBox="0 0 512 512">
  <defs>
    <radialGradient id="bg" cx="50%" cy="35%" r="70%">
      <stop offset="0%" stop-color="#193019"/>
      <stop offset="55%" stop-color="#071007"/>
      <stop offset="100%" stop-color="#020402"/>
    </radialGradient>
    <filter id="glow" x="-40%" y="-40%" width="180%" height="180%">
      <feGaussianBlur stdDeviation="9" result="blur"/>
      <feMerge><feMergeNode in="blur"/><feMergeNode in="SourceGraphic"/></feMerge>
    </filter>
  </defs>
  <rect width="512" height="512" rx="112" fill="url(#bg)"/>
  <rect x="28" y="28" width="456" height="456" rx="92" fill="none" stroke="#76ff28" stroke-opacity=".38" stroke-width="10"/>
  <g fill="none" stroke="#76ff28" stroke-width="26" stroke-linecap="round" stroke-linejoin="round" filter="url(#glow)">
    <path d="M132 184h228c35 0 64 29 64 64v70c0 36-29 64-64 64H132c-28 0-50-22-50-50V234c0-28 22-50 50-50Z"/>
    <path d="M124 184v-30c0-22 18-40 40-40h152c24 0 43 19 43 43v27"/>
    <path d="M353 270h78v60h-78c-17 0-30-13-30-30s13-30 30-30Z"/>
    <circle cx="355" cy="300" r="5" fill="#76ff28"/>
    <path d="M145 390l50-58 44 28 48-74 39 34 55-90"/>
    <path d="M357 230h42v42"/>
  </g>
  <text x="256" y="462" text-anchor="middle" font-size="54" font-weight="900" font-family="Arial, Helvetica, sans-serif" fill="#76ff28" filter="url(#glow)">BANCA</text>
</svg>